<svg xmlns="http://www.w3.org/2000/svg" viewBox="0 0 126.26 128.72">
  <path fill="#25D366" d="m119.41,51.23L65.75,1.03c-1.47-1.38-3.76-1.38-5.24,0L6.85,51.23C2.95,54.89,0,61.68,0,67.03v57.86c0,2.12,1.71,3.83,3.83,3.83h46.53c2.12,0,3.83-1.72,3.83-3.83,0-2.12-1.71-3.83-3.83-3.83h-9.69s0-41.24,0-41.24c0-3.17,2.11-8.03,4.42-10.2l18.03-16.87,18.03,16.87c2.31,2.16,4.42,7.02,4.42,10.19v41.24s-9.69,0-9.69,0c-2.12,0-3.83,1.71-3.83,3.83,0,2.12,1.71,3.83,3.83,3.83h46.53c2.12,0,3.83-1.72,3.83-3.83v-57.86c0-5.35-2.95-12.14-6.85-15.79ZM7.66,67.03c0-3.17,2.11-8.03,4.42-10.2L51.46,20l6.06,5.67-34.17,31.96c-3.91,3.65-6.85,10.44-6.85,15.79v47.64s-8.84,0-8.84,0v-54.03Zm32.2-3c-3.91,3.65-6.85,10.44-6.85,15.79v41.24s-8.84,0-8.84,0v-47.64c0-3.17,2.11-8.03,4.42-10.2l22.87-21.39,6.06,5.67-17.66,16.52Zm46.54,0l-29.33-27.44,6.06-5.67,34.54,32.31c2.31,2.17,4.42,7.03,4.42,10.2v47.64s-8.84,0-8.84,0v-41.24c0-5.35-2.95-12.14-6.85-15.79Zm32.2,57.03h-8.84s0-47.64,0-47.64c0-5.35-2.95-12.14-6.85-15.79L57.07,14.75l6.06-5.67,51.04,47.75c2.32,2.17,4.43,7.03,4.43,10.2v54.03Z"/>
  <path fill="#25D366" d="m75.1,95.69c-2.7,0-4.89,2.19-4.89,4.9,0,2.7,2.19,4.9,4.89,4.9,2.7,0,4.89-2.19,4.89-4.9,0-2.7-2.19-4.9-4.89-4.9Z"/>
</svg>
